G04*
G04 #@! TF.GenerationSoftware,Altium Limited,Altium Designer,20.0.13 (296)*
G04*
G04 Layer_Color=32768*
%FSLAX25Y25*%
%MOIN*%
G70*
G01*
G75*
%ADD29C,0.00394*%
%ADD31C,0.00197*%
D29*
X479500Y220532D02*
Y224468D01*
X477531Y222500D02*
X481468D01*
X461000Y293531D02*
Y297468D01*
X459031Y295500D02*
X462968D01*
X413732Y273158D02*
X430268D01*
X422000Y264496D02*
Y281819D01*
X400347Y227488D02*
Y282606D01*
Y227488D02*
X443653D01*
Y307803D01*
X400347D02*
X443653D01*
X400347Y282606D02*
Y307803D01*
X461000Y271532D02*
Y275468D01*
X459031Y273500D02*
X462968D01*
X375500Y251079D02*
Y256000D01*
X370579D02*
X375500D01*
Y260921D01*
Y256000D02*
X380421D01*
X494000Y283000D02*
X498921D01*
X494000D02*
Y287921D01*
X489079Y283000D02*
X494000D01*
Y278079D02*
Y283000D01*
X422000Y205031D02*
Y208968D01*
X420031Y207000D02*
X423969D01*
D31*
X451055Y196319D02*
X507945D01*
X451055Y248681D02*
X507945D01*
Y196319D02*
Y248681D01*
X451055Y196319D02*
Y248681D01*
X457260Y302193D02*
X464740D01*
X457260Y288807D02*
X464740D01*
Y302193D01*
X457260Y288807D02*
Y302193D01*
Y280193D02*
X464740D01*
X457260Y266807D02*
X464740D01*
Y280193D01*
X457260Y266807D02*
Y280193D01*
X358965Y239465D02*
Y272535D01*
Y239465D02*
X392035D01*
Y272535D01*
X358965D02*
X392035D01*
X473528Y303472D02*
X514472D01*
Y262528D02*
Y303472D01*
X473528Y262528D02*
X514472D01*
X473528D02*
Y303472D01*
X408000Y213890D02*
X436000D01*
X408000Y200110D02*
X436000D01*
X408000D02*
Y213890D01*
X436000Y200110D02*
Y213890D01*
M02*
