G04*
G04 #@! TF.GenerationSoftware,Altium Limited,Altium Designer,20.0.13 (296)*
G04*
G04 Layer_Color=8388736*
%FSLAX25Y25*%
%MOIN*%
G70*
G01*
G75*
%ADD18R,0.12217X0.22060*%
%ADD19R,0.06115X0.05328*%
%ADD20R,0.33792X0.42768*%
G04:AMPARAMS|DCode=21|XSize=55.24mil|YSize=129.06mil|CornerRadius=15.81mil|HoleSize=0mil|Usage=FLASHONLY|Rotation=0.000|XOffset=0mil|YOffset=0mil|HoleType=Round|Shape=RoundedRectangle|*
%AMROUNDEDRECTD21*
21,1,0.05524,0.09744,0,0,0.0*
21,1,0.02362,0.12906,0,0,0.0*
1,1,0.03162,0.01181,-0.04872*
1,1,0.03162,-0.01181,-0.04872*
1,1,0.03162,-0.01181,0.04872*
1,1,0.03162,0.01181,0.04872*
%
%ADD21ROUNDEDRECTD21*%
%ADD22R,0.10642X0.07493*%
G04:AMPARAMS|DCode=23|XSize=244.22mil|YSize=244.22mil|CornerRadius=63.06mil|HoleSize=0mil|Usage=FLASHONLY|Rotation=180.000|XOffset=0mil|YOffset=0mil|HoleType=Round|Shape=RoundedRectangle|*
%AMROUNDEDRECTD23*
21,1,0.24422,0.11811,0,0,180.0*
21,1,0.11811,0.24422,0,0,180.0*
1,1,0.12611,-0.05906,0.05906*
1,1,0.12611,0.05906,0.05906*
1,1,0.12611,0.05906,-0.05906*
1,1,0.12611,-0.05906,-0.05906*
%
%ADD23ROUNDEDRECTD23*%
%ADD24O,0.09068X0.06312*%
D18*
X498595Y222500D02*
D03*
X460405D02*
D03*
D19*
X461000Y298945D02*
D03*
Y292055D02*
D03*
Y276945D02*
D03*
Y270055D02*
D03*
D20*
X422000Y283000D02*
D03*
D21*
X435386Y238118D02*
D03*
X428693D02*
D03*
X422000D02*
D03*
X415307D02*
D03*
X408614D02*
D03*
D22*
X414126Y207000D02*
D03*
X429874D02*
D03*
D23*
X532382Y303839D02*
D03*
X365158D02*
D03*
X532382Y204134D02*
D03*
X365158D02*
D03*
D24*
X375500Y249110D02*
D03*
Y262890D02*
D03*
X494000Y292843D02*
D03*
Y273158D02*
D03*
M02*
