G04*
G04 #@! TF.GenerationSoftware,Altium Limited,Altium Designer,20.0.13 (296)*
G04*
G04 Layer_Physical_Order=2*
G04 Layer_Color=16711680*
%FSLAX25Y25*%
%MOIN*%
G70*
G01*
G75*
G04:AMPARAMS|DCode=26|XSize=236.22mil|YSize=236.22mil|CornerRadius=59.06mil|HoleSize=0mil|Usage=FLASHONLY|Rotation=180.000|XOffset=0mil|YOffset=0mil|HoleType=Round|Shape=RoundedRectangle|*
%AMROUNDEDRECTD26*
21,1,0.23622,0.11811,0,0,180.0*
21,1,0.11811,0.23622,0,0,180.0*
1,1,0.11811,-0.05906,0.05906*
1,1,0.11811,0.05906,0.05906*
1,1,0.11811,0.05906,-0.05906*
1,1,0.11811,-0.05906,-0.05906*
%
%ADD26ROUNDEDRECTD26*%
%ADD27O,0.08268X0.05512*%
%ADD28C,0.02756*%
G36*
X544689Y225296D02*
X544582Y213122D01*
X544080Y212999D01*
X543721Y213670D01*
X542909Y214661D01*
X541918Y215473D01*
X540788Y216077D01*
X539562Y216449D01*
X538287Y216575D01*
X526476D01*
X525201Y216449D01*
X523975Y216077D01*
X522846Y215473D01*
X521855Y214661D01*
X521042Y213670D01*
X520438Y212540D01*
X520067Y211314D01*
X519941Y210039D01*
Y198228D01*
X520067Y196953D01*
X520438Y195727D01*
X521042Y194597D01*
X521855Y193607D01*
X522846Y192794D01*
X523975Y192190D01*
X525120Y191843D01*
X525047Y191343D01*
X518494Y191311D01*
X372285D01*
X372260Y191811D01*
X372338Y191818D01*
X373564Y192190D01*
X374694Y192794D01*
X375684Y193607D01*
X376497Y194597D01*
X377101Y195727D01*
X377473Y196953D01*
X377598Y198228D01*
Y210039D01*
X377473Y211314D01*
X377101Y212540D01*
X376497Y213670D01*
X375684Y214661D01*
X374694Y215473D01*
X373564Y216077D01*
X372338Y216449D01*
X371063Y216575D01*
X359252D01*
X357977Y216449D01*
X356751Y216077D01*
X355621Y215473D01*
X354631Y214661D01*
X353818Y213670D01*
X353311Y212721D01*
X352811Y212847D01*
Y316189D01*
X544689D01*
Y225296D01*
D02*
G37*
%LPC*%
G36*
X495378Y276541D02*
X492622D01*
X491746Y276426D01*
X490930Y276087D01*
X490230Y275550D01*
X489692Y274849D01*
X489354Y274033D01*
X489239Y273158D01*
X489354Y272282D01*
X489692Y271466D01*
X490230Y270765D01*
X490930Y270228D01*
X491746Y269889D01*
X492622Y269774D01*
X495378D01*
X496254Y269889D01*
X497070Y270228D01*
X497770Y270765D01*
X498308Y271466D01*
X498646Y272282D01*
X498761Y273158D01*
X498646Y274033D01*
X498308Y274849D01*
X497770Y275550D01*
X497070Y276087D01*
X496254Y276426D01*
X495378Y276541D01*
D02*
G37*
G36*
X376878Y252494D02*
X374122D01*
X373246Y252378D01*
X372430Y252040D01*
X371730Y251503D01*
X371192Y250802D01*
X370854Y249986D01*
X370739Y249110D01*
X370854Y248235D01*
X371192Y247419D01*
X371730Y246718D01*
X372430Y246180D01*
X373246Y245842D01*
X374122Y245727D01*
X376878D01*
X377754Y245842D01*
X378570Y246180D01*
X379270Y246718D01*
X379808Y247419D01*
X380146Y248235D01*
X380261Y249110D01*
X380146Y249986D01*
X379808Y250802D01*
X379270Y251503D01*
X378570Y252040D01*
X377754Y252378D01*
X376878Y252494D01*
D02*
G37*
%LPD*%
D26*
X532382Y303839D02*
D03*
X365158D02*
D03*
X532382Y204134D02*
D03*
X365158D02*
D03*
D27*
X375500Y249110D02*
D03*
Y262890D02*
D03*
X494000Y292843D02*
D03*
Y273158D02*
D03*
D28*
X537401Y283465D02*
D03*
X525590D02*
D03*
X513779Y307086D02*
D03*
X507874Y295275D02*
D03*
X513779Y283465D02*
D03*
X501968Y307086D02*
D03*
Y283465D02*
D03*
X490157Y307086D02*
D03*
X484252Y295275D02*
D03*
X490157Y283465D02*
D03*
X484252Y224409D02*
D03*
Y200787D02*
D03*
X478346Y307086D02*
D03*
X472441Y295275D02*
D03*
X478346Y283465D02*
D03*
Y236220D02*
D03*
X472441Y224409D02*
D03*
X478346Y212598D02*
D03*
X472441Y200787D02*
D03*
X466535Y307086D02*
D03*
Y283465D02*
D03*
Y236220D02*
D03*
X460630Y200787D02*
D03*
X454724Y307086D02*
D03*
X448819Y295275D02*
D03*
X454724Y283465D02*
D03*
Y259842D02*
D03*
X448819Y248031D02*
D03*
X454724Y236220D02*
D03*
X448819Y200787D02*
D03*
X442913Y307086D02*
D03*
Y283465D02*
D03*
Y236220D02*
D03*
X437008Y200787D02*
D03*
X431102Y307086D02*
D03*
Y259842D02*
D03*
X425197Y248031D02*
D03*
Y200787D02*
D03*
X419291Y307086D02*
D03*
Y259842D02*
D03*
X413386Y200787D02*
D03*
X407480Y307086D02*
D03*
X401575Y295275D02*
D03*
Y271654D02*
D03*
X407480Y259842D02*
D03*
X395669Y307086D02*
D03*
X389764Y295275D02*
D03*
X395669Y283465D02*
D03*
X389764Y271654D02*
D03*
X395669Y259842D02*
D03*
X383858Y307086D02*
D03*
Y283465D02*
D03*
X377953Y271654D02*
D03*
X383858Y259842D02*
D03*
X372047Y283465D02*
D03*
X366142Y271654D02*
D03*
X360236Y283465D02*
D03*
X354331Y271654D02*
D03*
X360236Y259842D02*
D03*
M02*
