G04*
G04 #@! TF.GenerationSoftware,Altium Limited,Altium Designer,20.0.13 (296)*
G04*
G04 Layer_Color=65535*
%FSLAX25Y25*%
%MOIN*%
G70*
G01*
G75*
%ADD10C,0.00787*%
%ADD11C,0.00591*%
%ADD12C,0.01000*%
G36*
X368845Y270272D02*
X369624Y270636D01*
X371252Y271189D01*
X372931Y271561D01*
X374640Y271748D01*
X376360D01*
X378069Y271561D01*
X379748Y271189D01*
X381376Y270636D01*
X382155Y270272D01*
Y270272D01*
X368845Y270272D01*
D02*
G37*
G36*
X485681Y300841D02*
X486655Y301295D01*
X488690Y301986D01*
X490789Y302451D01*
X492925Y302685D01*
X495075D01*
X497211Y302451D01*
X499310Y301986D01*
X501345Y301295D01*
X502319Y300841D01*
Y300841D01*
X485681Y300841D01*
D02*
G37*
G36*
X388158Y235943D02*
X388320Y235920D01*
X388481Y235851D01*
X388689Y235782D01*
X388873Y235666D01*
X389057Y235528D01*
X389081Y235505D01*
X389127Y235459D01*
X389173Y235413D01*
X389219Y235343D01*
X389242Y235320D01*
X389265Y235274D01*
X389380Y235136D01*
X395975Y223698D01*
X395999Y223675D01*
X396022Y223606D01*
X396068Y223491D01*
X396114Y223329D01*
X396160Y223168D01*
X396183Y222960D01*
Y222729D01*
X396160Y222476D01*
Y222453D01*
X396137Y222407D01*
X396114Y222338D01*
X396091Y222245D01*
Y222222D01*
X396068Y222176D01*
X396045Y222107D01*
X395999Y222015D01*
X395975D01*
X395953Y221992D01*
X395906Y221922D01*
X395837Y221830D01*
X395745Y221692D01*
X395607Y221576D01*
X395445Y221438D01*
X395261Y221323D01*
X395030Y221231D01*
X395007D01*
X394938Y221207D01*
X394869Y221184D01*
X394730D01*
X394661Y221161D01*
X381217D01*
X381102Y221184D01*
X380940Y221207D01*
X380756Y221254D01*
X380548Y221346D01*
X380364Y221438D01*
X380156Y221600D01*
X380133Y221623D01*
X380110Y221669D01*
X379995Y221784D01*
X379972Y221807D01*
X379949Y221853D01*
X379857Y221992D01*
Y222015D01*
X379834Y222038D01*
X379811Y222107D01*
X379764Y222222D01*
X379718Y222360D01*
X379672Y222545D01*
X379626Y222729D01*
Y222960D01*
X379649Y223191D01*
Y223214D01*
X379672Y223283D01*
X379695Y223375D01*
X379718Y223421D01*
Y223444D01*
X379741Y223491D01*
X379787Y223560D01*
X379834Y223652D01*
Y223675D01*
X379857D01*
X386452Y235113D01*
Y235136D01*
X386475Y235159D01*
X386590Y235297D01*
X386729Y235482D01*
X386936Y235666D01*
X386982Y235689D01*
X387074Y235735D01*
X387097D01*
X387143Y235782D01*
X387213Y235805D01*
X387328Y235851D01*
X387605Y235920D01*
X387928Y235966D01*
X388043D01*
X388158Y235943D01*
D02*
G37*
G36*
X528240Y259734D02*
Y259696D01*
X528624Y257735D01*
Y257697D01*
X528663Y257658D01*
X528701Y257620D01*
X530008Y257082D01*
X530123D01*
X531776Y258235D01*
X531815D01*
X531892Y258196D01*
X533314Y256851D01*
Y256813D01*
Y256774D01*
Y256736D01*
Y256697D01*
X532161Y255083D01*
Y255006D01*
Y254967D01*
Y254929D01*
X532776Y253584D01*
Y253545D01*
X532814Y253507D01*
X532891D01*
X534736Y253161D01*
X534813D01*
X534852Y253122D01*
Y253084D01*
Y251123D01*
Y251085D01*
X534813Y251046D01*
X534736D01*
X532930Y250662D01*
X532891D01*
X532853Y250624D01*
X532814Y250585D01*
X532238Y249125D01*
Y249086D01*
Y249048D01*
Y249009D01*
Y248971D01*
X533314Y247472D01*
Y247395D01*
Y247356D01*
X531892Y245972D01*
X531853Y245934D01*
X531815D01*
X531776Y245972D01*
X530277Y246972D01*
X530123D01*
X529508Y246626D01*
X529431D01*
X529393Y246664D01*
X528009Y249970D01*
Y250009D01*
X528048Y250124D01*
X528240Y250201D01*
X528278Y250239D01*
X528317Y250278D01*
X528355Y250316D01*
X528470Y250393D01*
X528624Y250547D01*
X528816Y250739D01*
X529009Y250970D01*
X529162Y251277D01*
X529278Y251623D01*
X529316Y252046D01*
Y252084D01*
Y252200D01*
X529278Y252354D01*
X529239Y252584D01*
X529162Y252815D01*
X529047Y253084D01*
X528893Y253353D01*
X528701Y253584D01*
X528663Y253622D01*
X528586Y253699D01*
X528470Y253776D01*
X528278Y253929D01*
X528048Y254045D01*
X527778Y254122D01*
X527509Y254199D01*
X527164Y254237D01*
X527010D01*
X526856Y254199D01*
X526625Y254160D01*
X526395Y254083D01*
X526126Y253968D01*
X525895Y253814D01*
X525626Y253584D01*
X525587Y253545D01*
X525549Y253468D01*
X525434Y253353D01*
X525318Y253161D01*
X525203Y252930D01*
X525126Y252661D01*
X525049Y252392D01*
X525011Y252046D01*
Y252008D01*
Y251854D01*
X525049Y251662D01*
X525126Y251393D01*
X525242Y251123D01*
X525434Y250816D01*
X525664Y250547D01*
X526010Y250278D01*
Y250239D01*
X526049Y250201D01*
X526087D01*
X526279Y250124D01*
X526318Y250085D01*
Y249970D01*
X524972Y246664D01*
X524934D01*
X524819Y246626D01*
X524165Y246972D01*
X524050D01*
X522551Y245972D01*
X522512Y245934D01*
X522474D01*
X522435Y245972D01*
X521013Y247356D01*
Y247395D01*
Y247433D01*
Y247472D01*
X522089Y248971D01*
Y249009D01*
Y249048D01*
Y249086D01*
Y249125D01*
X521474Y250585D01*
Y250624D01*
X521397Y250662D01*
X519591Y251046D01*
X519552D01*
X519514Y251085D01*
X519476Y251123D01*
Y253084D01*
Y253122D01*
X519514Y253161D01*
X519591D01*
X521436Y253507D01*
X521474D01*
X521590Y253584D01*
X522128Y254929D01*
Y254967D01*
Y255006D01*
Y255044D01*
Y255083D01*
X521013Y256697D01*
Y256736D01*
Y256774D01*
Y256813D01*
Y256851D01*
X522435Y258196D01*
X522474Y258235D01*
X522551D01*
X524165Y257082D01*
X524319D01*
X525626Y257620D01*
X525664D01*
X525703Y257658D01*
Y257735D01*
X526087Y259696D01*
Y259734D01*
X526126Y259772D01*
X528201D01*
X528240Y259734D01*
D02*
G37*
G36*
X533468Y244281D02*
X533621Y244204D01*
X533314Y243820D01*
X533275Y243858D01*
X533237Y243897D01*
X533160Y243935D01*
X533083Y243974D01*
X533006D01*
X532891Y243935D01*
X532737Y243781D01*
X532699Y243666D01*
X532660Y243512D01*
Y242282D01*
X532238D01*
Y244358D01*
X532660D01*
Y244127D01*
X532699Y244166D01*
X532776Y244243D01*
X532968Y244320D01*
X533198Y244358D01*
X533314D01*
X533468Y244281D01*
D02*
G37*
G36*
X524626D02*
X524742Y244166D01*
X524857Y244051D01*
X524934Y243858D01*
X524972Y243628D01*
Y242282D01*
X524549D01*
Y243512D01*
Y243551D01*
Y243589D01*
X524511Y243743D01*
X524357Y243897D01*
X524281Y243974D01*
X524050D01*
X523935Y243935D01*
X523781Y243781D01*
X523742Y243666D01*
X523704Y243512D01*
Y242282D01*
X523281D01*
Y244358D01*
X523704D01*
Y244127D01*
X523742Y244166D01*
X523858Y244243D01*
X524011Y244320D01*
X524281Y244358D01*
X524396D01*
X524626Y244281D01*
D02*
G37*
G36*
X520475Y244320D02*
X520667Y244281D01*
X520859Y244127D01*
X520898Y244089D01*
X520936Y243935D01*
X520975Y243705D01*
Y243320D01*
Y243282D01*
Y243243D01*
Y243013D01*
X520936Y242743D01*
X520859Y242513D01*
X520821Y242474D01*
X520667Y242397D01*
X520475Y242282D01*
X520283Y242244D01*
X520244D01*
X520129Y242282D01*
X519937Y242359D01*
X519706Y242474D01*
Y240860D01*
X519744Y240898D01*
X519860Y240975D01*
X520014Y241052D01*
X520283Y241091D01*
X520398D01*
X520629Y241014D01*
X520744Y240937D01*
X520859Y240783D01*
X520936Y240629D01*
X520975Y240399D01*
Y239053D01*
X520552D01*
Y240245D01*
Y240283D01*
Y240322D01*
X520513Y240476D01*
X520360Y240629D01*
X520283Y240706D01*
X520052D01*
X519937Y240668D01*
X519783Y240514D01*
X519744Y240399D01*
X519706Y240245D01*
Y239053D01*
X519360D01*
Y244358D01*
X519706D01*
Y244127D01*
X519744Y244166D01*
X519898Y244243D01*
X520052Y244320D01*
X520283Y244358D01*
X520321D01*
X520475Y244320D01*
D02*
G37*
G36*
X527279D02*
X527509Y244243D01*
X527778Y244051D01*
X527548Y243781D01*
X527471Y243820D01*
X527317Y243897D01*
X527125Y243935D01*
X526971Y243974D01*
X526894D01*
X526779Y243935D01*
X526664Y243897D01*
X526587Y243743D01*
Y243705D01*
X526625Y243666D01*
X526702Y243589D01*
X526894Y243551D01*
X527240Y243512D01*
X527356D01*
X527548Y243397D01*
X527778Y243205D01*
X527817Y243090D01*
X527855Y242897D01*
Y242859D01*
Y242782D01*
X527817Y242705D01*
X527740Y242590D01*
X527625Y242436D01*
X527471Y242359D01*
X527279Y242282D01*
X526971Y242244D01*
X526894D01*
X526664Y242282D01*
X526395Y242397D01*
X526087Y242628D01*
X526356Y242897D01*
X526395Y242859D01*
X526548Y242782D01*
X526779Y242667D01*
X527010Y242628D01*
X527087D01*
X527240Y242667D01*
X527356Y242743D01*
X527432Y242820D01*
Y242897D01*
Y242936D01*
X527394Y242974D01*
X527317Y243051D01*
X527164Y243128D01*
X526741D01*
X526702Y243166D01*
X526510Y243243D01*
X526318Y243435D01*
X526279Y243551D01*
X526241Y243743D01*
Y243781D01*
Y243858D01*
X526318Y244051D01*
X526433Y244166D01*
X526548Y244281D01*
X526741Y244320D01*
X526971Y244358D01*
X527048D01*
X527279Y244320D01*
D02*
G37*
G36*
X534775D02*
X535005Y244204D01*
X535236Y244012D01*
X534928Y243743D01*
X534890Y243781D01*
X534813Y243858D01*
X534698Y243935D01*
X534506Y243974D01*
X534429D01*
X534275Y243897D01*
X534160Y243820D01*
X534083Y243705D01*
X534044Y243551D01*
X534006Y243320D01*
Y243282D01*
Y243205D01*
X534083Y243013D01*
X534236Y242782D01*
X534352Y242705D01*
X534506Y242667D01*
X534544D01*
X534659Y242705D01*
X534775Y242782D01*
X534928Y242897D01*
X535236Y242628D01*
X535197Y242551D01*
X535044Y242436D01*
X534813Y242321D01*
X534506Y242244D01*
X534352D01*
X534198Y242321D01*
X534044Y242397D01*
X533890Y242513D01*
X533737Y242705D01*
X533621Y242974D01*
X533583Y243320D01*
Y243358D01*
Y243474D01*
X533621Y243666D01*
X533698Y243858D01*
X533814Y244012D01*
X533967Y244204D01*
X534198Y244320D01*
X534506Y244358D01*
X534582D01*
X534775Y244320D01*
D02*
G37*
G36*
X531776Y242282D02*
X531353D01*
Y242474D01*
X531315Y242436D01*
X531200Y242359D01*
X531046Y242282D01*
X530854Y242244D01*
X530738D01*
X530508Y242321D01*
X530354Y242397D01*
X530239Y242551D01*
X530162Y242705D01*
X530123Y242936D01*
Y244358D01*
X530546D01*
Y243128D01*
Y243051D01*
X530585Y242897D01*
X530738Y242743D01*
X530815Y242705D01*
X530969Y242667D01*
X531046D01*
X531161Y242743D01*
X531277Y242859D01*
X531353Y242974D01*
Y243128D01*
Y244358D01*
X531776D01*
Y242282D01*
D02*
G37*
G36*
X536466Y244320D02*
X536658Y244243D01*
X536812Y244166D01*
X536927Y244012D01*
X537043Y243781D01*
X537081Y243512D01*
Y243128D01*
X535774D01*
Y243090D01*
Y243051D01*
X535851Y242897D01*
X536005Y242705D01*
X536120Y242667D01*
X536274Y242628D01*
X536312D01*
X536427Y242667D01*
X536581Y242743D01*
X536697Y242859D01*
X537004Y242590D01*
X536966Y242551D01*
X536812Y242436D01*
X536581Y242282D01*
X536274Y242244D01*
X536120D01*
X535966Y242321D01*
X535813Y242397D01*
X535659Y242513D01*
X535505Y242705D01*
X535390Y242974D01*
X535351Y243320D01*
Y243358D01*
Y243474D01*
X535390Y243666D01*
X535466Y243858D01*
X535543Y244012D01*
X535697Y244204D01*
X535928Y244320D01*
X536197Y244358D01*
X536351D01*
X536466Y244320D01*
D02*
G37*
G36*
X529162D02*
X529355Y244281D01*
X529547Y244127D01*
X529585Y244089D01*
X529662Y243935D01*
X529739Y243705D01*
X529777Y243320D01*
Y243282D01*
Y243243D01*
X529739Y243013D01*
X529701Y242743D01*
X529547Y242513D01*
X529508Y242474D01*
X529393Y242397D01*
X529201Y242282D01*
X528932Y242244D01*
X528855D01*
X528701Y242282D01*
X528509Y242359D01*
X528278Y242513D01*
X528240Y242551D01*
X528201Y242705D01*
X528125Y242974D01*
X528086Y243320D01*
Y243358D01*
Y243397D01*
X528125Y243628D01*
X528163Y243897D01*
X528278Y244127D01*
X528317Y244166D01*
X528432Y244243D01*
X528663Y244320D01*
X528932Y244358D01*
X529009D01*
X529162Y244320D01*
D02*
G37*
G36*
X522359D02*
X522551Y244243D01*
X522704Y244166D01*
X522820Y244012D01*
X522935Y243781D01*
X522973Y243512D01*
Y243128D01*
X521667D01*
Y243090D01*
Y243051D01*
X521743Y242897D01*
X521859Y242705D01*
X521974Y242667D01*
X522128Y242628D01*
X522166D01*
X522320Y242667D01*
X522435Y242743D01*
X522589Y242859D01*
X522935Y242590D01*
X522858Y242551D01*
X522704Y242436D01*
X522474Y242282D01*
X522166Y242244D01*
X522013D01*
X521859Y242321D01*
X521705Y242397D01*
X521551Y242513D01*
X521397Y242705D01*
X521282Y242974D01*
X521244Y243320D01*
Y243358D01*
Y243474D01*
X521282Y243666D01*
X521359Y243858D01*
X521436Y244012D01*
X521590Y244204D01*
X521820Y244320D01*
X522089Y244358D01*
X522243D01*
X522359Y244320D01*
D02*
G37*
G36*
X518399D02*
X518591Y244281D01*
X518745Y244127D01*
X518784Y244089D01*
X518860Y243935D01*
X518937Y243705D01*
X518976Y243320D01*
Y243282D01*
Y243243D01*
X518937Y243013D01*
X518899Y242743D01*
X518745Y242513D01*
X518707Y242474D01*
X518591Y242397D01*
X518399Y242282D01*
X518130Y242244D01*
X518053D01*
X517899Y242282D01*
X517707Y242359D01*
X517477Y242513D01*
X517438Y242551D01*
X517400Y242743D01*
X517361Y242974D01*
X517323Y243320D01*
Y243358D01*
Y243397D01*
X517361Y243628D01*
X517400Y243858D01*
X517477Y244127D01*
X517515Y244166D01*
X517630Y244243D01*
X517861Y244320D01*
X518130Y244358D01*
X518207D01*
X518399Y244320D01*
D02*
G37*
G36*
X532968Y241014D02*
X533122Y240937D01*
X532776Y240591D01*
Y240629D01*
X532699Y240668D01*
X532622Y240706D01*
X532430D01*
X532314Y240668D01*
X532199Y240514D01*
X532122Y240399D01*
Y240245D01*
Y239053D01*
X531699D01*
Y241091D01*
X532122D01*
Y240860D01*
X532161Y240898D01*
X532276Y240975D01*
X532430Y241052D01*
X532699Y241091D01*
X532814D01*
X532968Y241014D01*
D02*
G37*
G36*
X526433Y239053D02*
X526010D01*
Y239207D01*
X525972Y239169D01*
X525856Y239092D01*
X525703Y239015D01*
X525472Y238976D01*
X525434D01*
X525280Y239015D01*
X525088Y239092D01*
X524934Y239284D01*
X524895Y239322D01*
X524857Y239438D01*
X524819Y239514D01*
Y239668D01*
X524780Y239822D01*
Y240053D01*
Y240091D01*
Y240168D01*
X524819Y240399D01*
X524857Y240668D01*
X524895Y240783D01*
X524934Y240860D01*
X524972Y240898D01*
X525049Y240975D01*
X525242Y241052D01*
X525472Y241091D01*
X525511D01*
X525664Y241052D01*
X525818Y241014D01*
X526010Y240860D01*
Y241936D01*
X526433D01*
Y239053D01*
D02*
G37*
G36*
X524626Y241014D02*
X524780Y240937D01*
X524473Y240591D01*
X524434Y240629D01*
X524396Y240668D01*
X524281Y240706D01*
X524127D01*
X524011Y240668D01*
X523858Y240514D01*
X523819Y240399D01*
Y240245D01*
Y239053D01*
X523396D01*
Y241091D01*
X523819D01*
Y240860D01*
X523858Y240898D01*
X523935Y240975D01*
X524088Y241052D01*
X524319Y241091D01*
X524473D01*
X524626Y241014D01*
D02*
G37*
G36*
X528932Y239053D02*
X528547D01*
X528086Y240476D01*
X527663Y239053D01*
X527317D01*
X526664Y241091D01*
X527087D01*
X527471Y239630D01*
X527971Y241091D01*
X528278D01*
X528740Y239630D01*
X529124Y241091D01*
X529585D01*
X528932Y239053D01*
D02*
G37*
G36*
X530854Y241014D02*
X530969Y240937D01*
X531123Y240822D01*
X531200Y240668D01*
X531238Y240437D01*
Y239053D01*
X530854D01*
Y239207D01*
X530815Y239169D01*
X530738Y239092D01*
X530546Y239015D01*
X530315Y238976D01*
X530200D01*
X529970Y239053D01*
X529816Y239130D01*
X529701Y239246D01*
X529624Y239399D01*
X529585Y239630D01*
Y239668D01*
Y239745D01*
X529662Y239937D01*
X529739Y240053D01*
X529893Y240168D01*
X530047Y240207D01*
X530277Y240245D01*
X530854D01*
Y240437D01*
Y240476D01*
X530815Y240591D01*
X530661Y240668D01*
X530585Y240706D01*
X530277D01*
X530123Y240668D01*
X530047Y240591D01*
X529739Y240822D01*
X529777Y240860D01*
X529893Y240975D01*
X530085Y241052D01*
X530431Y241091D01*
X530546D01*
X530854Y241014D01*
D02*
G37*
G36*
X522320Y241052D02*
X522512Y241014D01*
X522666Y240937D01*
X522781Y240822D01*
X522897Y240668D01*
X522935Y240437D01*
Y239053D01*
X522512D01*
Y239207D01*
X522474Y239169D01*
X522397Y239092D01*
X522243Y239015D01*
X522013Y238976D01*
X521897D01*
X521628Y239053D01*
X521474Y239130D01*
X521359Y239246D01*
X521282Y239399D01*
X521244Y239630D01*
Y239668D01*
Y239745D01*
X521321Y239937D01*
X521397Y240053D01*
X521551Y240168D01*
X521705Y240207D01*
X521936Y240245D01*
X522512D01*
Y240437D01*
Y240476D01*
X522474Y240591D01*
X522320Y240668D01*
X522243Y240706D01*
X521936D01*
X521782Y240668D01*
X521667Y240591D01*
X521359Y240822D01*
X521397Y240860D01*
X521551Y240975D01*
X521743Y241052D01*
X522051Y241091D01*
X522205D01*
X522320Y241052D01*
D02*
G37*
G36*
X534236D02*
X534429Y240975D01*
X534582Y240898D01*
X534698Y240745D01*
X534813Y240514D01*
X534852Y240245D01*
Y239861D01*
X533544D01*
Y239822D01*
Y239784D01*
X533621Y239630D01*
X533737Y239438D01*
X533852Y239399D01*
X534006Y239361D01*
X534044D01*
X534198Y239399D01*
X534313Y239476D01*
X534467Y239591D01*
X534775Y239322D01*
X534736Y239284D01*
X534582Y239169D01*
X534352Y239015D01*
X534044Y238976D01*
X533890D01*
X533737Y239053D01*
X533583Y239130D01*
X533429Y239246D01*
X533275Y239438D01*
X533160Y239707D01*
X533122Y240053D01*
Y240091D01*
Y240207D01*
X533160Y240399D01*
X533237Y240591D01*
X533314Y240745D01*
X533468Y240937D01*
X533698Y241052D01*
X533967Y241091D01*
X534121D01*
X534236Y241052D01*
D02*
G37*
G36*
X516617Y313417D02*
X516710D01*
X516917Y313406D01*
X517159Y313371D01*
X517401Y313336D01*
X517643Y313279D01*
X517863Y313210D01*
X517885Y313198D01*
X517955Y313175D01*
X518047Y313117D01*
X518174Y313048D01*
X518312Y312967D01*
X518462Y312864D01*
X518612Y312737D01*
X518750Y312598D01*
X518762Y312575D01*
X518808Y312529D01*
X518866Y312449D01*
X518946Y312345D01*
X519027Y312218D01*
X519096Y312080D01*
X519165Y311918D01*
X519223Y311757D01*
Y311745D01*
X519235Y311734D01*
Y311699D01*
X519246Y311653D01*
X519269Y311538D01*
X519304Y311388D01*
X519338Y311215D01*
X519361Y311030D01*
X519373Y310846D01*
X519384Y310650D01*
Y307906D01*
X513389D01*
Y310788D01*
X513400Y310857D01*
Y310938D01*
X513412Y311123D01*
X513447Y311330D01*
X513481Y311549D01*
X513539Y311768D01*
X513619Y311964D01*
Y311976D01*
X513631Y311987D01*
X513654Y312045D01*
X513712Y312137D01*
X513781Y312264D01*
X513873Y312391D01*
X513977Y312529D01*
X514104Y312668D01*
X514254Y312794D01*
X514277Y312806D01*
X514323Y312852D01*
X514415Y312910D01*
X514519Y312979D01*
X514669Y313060D01*
X514830Y313140D01*
X515015Y313210D01*
X515211Y313279D01*
X515222D01*
X515234Y313290D01*
X515303Y313302D01*
X515418Y313325D01*
X515568Y313359D01*
X515741Y313383D01*
X515937Y313406D01*
X516145Y313417D01*
X516375Y313429D01*
X516387D01*
X516421D01*
X516467D01*
X516537D01*
X516617Y313417D01*
D02*
G37*
G36*
X519384Y304908D02*
X516087Y302660D01*
X519384D01*
Y300919D01*
X513389D01*
Y302637D01*
X516721Y304908D01*
X513389D01*
Y306649D01*
X519384D01*
Y304908D01*
D02*
G37*
G36*
X518543Y299800D02*
X518554Y299777D01*
X518589Y299731D01*
X518623Y299673D01*
X518670Y299604D01*
X518716Y299512D01*
X518831Y299316D01*
X518958Y299085D01*
X519085Y298843D01*
X519200Y298589D01*
X519292Y298347D01*
Y298336D01*
X519304Y298324D01*
X519315Y298278D01*
X519327Y298232D01*
X519338Y298174D01*
X519350Y298105D01*
X519384Y297921D01*
X519430Y297702D01*
X519454Y297448D01*
X519477Y297160D01*
X519488Y296849D01*
Y296745D01*
X519477Y296675D01*
Y296583D01*
X519465Y296480D01*
X519454Y296364D01*
X519442Y296237D01*
X519396Y295961D01*
X519338Y295672D01*
X519246Y295373D01*
X519131Y295108D01*
Y295096D01*
X519108Y295073D01*
X519096Y295038D01*
X519062Y294992D01*
X518981Y294877D01*
X518854Y294727D01*
X518704Y294566D01*
X518520Y294393D01*
X518301Y294220D01*
X518047Y294070D01*
X518035D01*
X518012Y294058D01*
X517978Y294035D01*
X517920Y294012D01*
X517851Y293989D01*
X517770Y293954D01*
X517678Y293920D01*
X517563Y293885D01*
X517321Y293816D01*
X517044Y293758D01*
X516721Y293712D01*
X516387Y293701D01*
X516375D01*
X516340D01*
X516294D01*
X516225Y293712D01*
X516133D01*
X516041Y293724D01*
X515925Y293735D01*
X515810Y293747D01*
X515533Y293805D01*
X515257Y293874D01*
X514957Y293966D01*
X514680Y294104D01*
X514669D01*
X514646Y294127D01*
X514611Y294150D01*
X514565Y294185D01*
X514427Y294277D01*
X514265Y294404D01*
X514092Y294577D01*
X513908Y294773D01*
X513735Y295015D01*
X513585Y295292D01*
Y295304D01*
X513573Y295315D01*
X513562Y295361D01*
X513539Y295407D01*
X513516Y295465D01*
X513493Y295534D01*
X513458Y295626D01*
X513435Y295730D01*
X513412Y295834D01*
X513377Y295961D01*
X513331Y296237D01*
X513297Y296560D01*
X513285Y296929D01*
Y297171D01*
X513297Y297275D01*
X513308Y297483D01*
X513331Y297725D01*
X513366Y297978D01*
X513412Y298209D01*
X513435Y298313D01*
X513470Y298417D01*
Y298428D01*
X513481Y298440D01*
X513504Y298497D01*
X513550Y298589D01*
X513608Y298705D01*
X513689Y298832D01*
X513781Y298970D01*
X513896Y299108D01*
X514035Y299235D01*
X514046Y299247D01*
X514104Y299293D01*
X514184Y299351D01*
X514288Y299420D01*
X514427Y299500D01*
X514588Y299581D01*
X514784Y299662D01*
X514992Y299731D01*
X515303Y297944D01*
X515291D01*
X515245Y297921D01*
X515188Y297898D01*
X515107Y297852D01*
X515026Y297806D01*
X514945Y297736D01*
X514853Y297656D01*
X514784Y297563D01*
X514772Y297552D01*
X514749Y297517D01*
X514726Y297460D01*
X514692Y297379D01*
X514657Y297287D01*
X514622Y297160D01*
X514611Y297033D01*
X514600Y296883D01*
Y296825D01*
X514611Y296779D01*
X514622Y296675D01*
X514657Y296537D01*
X514703Y296376D01*
X514784Y296214D01*
X514888Y296064D01*
X515026Y295915D01*
X515049Y295903D01*
X515107Y295857D01*
X515211Y295799D01*
X515349Y295742D01*
X515545Y295672D01*
X515775Y295615D01*
X516052Y295569D01*
X516202Y295557D01*
X516375D01*
X516387D01*
X516421D01*
X516467D01*
X516537Y295569D01*
X516617D01*
X516698Y295580D01*
X516905Y295603D01*
X517136Y295649D01*
X517367Y295707D01*
X517574Y295799D01*
X517678Y295857D01*
X517759Y295915D01*
X517782Y295938D01*
X517828Y295984D01*
X517885Y296064D01*
X517966Y296180D01*
X518047Y296330D01*
X518105Y296503D01*
X518151Y296710D01*
X518174Y296941D01*
Y297056D01*
X518162Y297137D01*
X518151Y297217D01*
X518139Y297321D01*
X518093Y297529D01*
Y297540D01*
X518070Y297575D01*
X518047Y297644D01*
X518024Y297725D01*
X517978Y297817D01*
X517920Y297932D01*
X517863Y298048D01*
X517782Y298186D01*
X517205D01*
Y296941D01*
X515960D01*
Y299812D01*
X518531D01*
X518543Y299800D01*
D02*
G37*
G36*
X514865Y216217D02*
X519384D01*
Y214360D01*
X514865D01*
Y212469D01*
X513389D01*
Y218108D01*
X514865D01*
Y216217D01*
D02*
G37*
G36*
X517159Y211662D02*
X517286Y211651D01*
X517436Y211628D01*
X517609Y211605D01*
X517782Y211559D01*
X517966Y211501D01*
X517989Y211489D01*
X518047Y211466D01*
X518139Y211432D01*
X518243Y211374D01*
X518381Y211305D01*
X518520Y211213D01*
X518658Y211109D01*
X518796Y210982D01*
X518808Y210970D01*
X518854Y210924D01*
X518912Y210844D01*
X518992Y210751D01*
X519073Y210648D01*
X519154Y210521D01*
X519235Y210383D01*
X519292Y210244D01*
Y210233D01*
X519304Y210221D01*
X519315Y210187D01*
X519327Y210152D01*
X519350Y210037D01*
X519384Y209875D01*
X519430Y209691D01*
X519454Y209472D01*
X519477Y209218D01*
X519488Y208941D01*
Y208780D01*
X519477Y208664D01*
Y208526D01*
X519465Y208365D01*
X519454Y208180D01*
X519430Y207996D01*
Y207973D01*
X519419Y207915D01*
X519408Y207811D01*
X519373Y207696D01*
X519350Y207558D01*
X519304Y207408D01*
X519246Y207269D01*
X519188Y207131D01*
X519177Y207119D01*
X519154Y207073D01*
X519108Y207004D01*
X519050Y206924D01*
X518981Y206820D01*
X518889Y206716D01*
X518785Y206612D01*
X518670Y206497D01*
X518658Y206485D01*
X518612Y206451D01*
X518543Y206405D01*
X518462Y206335D01*
X518358Y206278D01*
X518231Y206209D01*
X518105Y206139D01*
X517978Y206093D01*
X517966D01*
X517955Y206082D01*
X517885Y206070D01*
X517770Y206047D01*
X517643Y206013D01*
X517482Y205978D01*
X517309Y205955D01*
X517136Y205943D01*
X516963Y205932D01*
X513389D01*
Y207777D01*
X517055D01*
X517078D01*
X517136D01*
X517228Y207788D01*
X517332Y207811D01*
X517459Y207846D01*
X517586Y207892D01*
X517713Y207950D01*
X517828Y208042D01*
X517839Y208053D01*
X517874Y208088D01*
X517909Y208157D01*
X517955Y208238D01*
X518012Y208353D01*
X518047Y208480D01*
X518082Y208630D01*
X518093Y208803D01*
Y208884D01*
X518082Y208964D01*
X518058Y209080D01*
X518024Y209195D01*
X517978Y209322D01*
X517920Y209437D01*
X517828Y209552D01*
X517816Y209564D01*
X517782Y209598D01*
X517713Y209645D01*
X517632Y209691D01*
X517517Y209737D01*
X517390Y209783D01*
X517228Y209818D01*
X517055Y209829D01*
X513389D01*
Y211674D01*
X516963D01*
X516986D01*
X517055D01*
X517159Y211662D01*
D02*
G37*
G36*
X516617Y204917D02*
X516721Y204906D01*
X516836Y204894D01*
X516963Y204883D01*
X517240Y204837D01*
X517528Y204779D01*
X517816Y204687D01*
X518082Y204571D01*
X518093D01*
X518116Y204560D01*
X518151Y204537D01*
X518197Y204502D01*
X518312Y204421D01*
X518462Y204306D01*
X518623Y204168D01*
X518796Y203983D01*
X518969Y203787D01*
X519119Y203545D01*
Y203534D01*
X519131Y203511D01*
X519154Y203476D01*
X519177Y203430D01*
X519200Y203361D01*
X519235Y203280D01*
X519269Y203188D01*
X519304Y203084D01*
X519338Y202969D01*
X519373Y202842D01*
X519430Y202565D01*
X519477Y202242D01*
X519488Y201885D01*
Y201712D01*
X519477Y201631D01*
X519465Y201527D01*
Y201412D01*
X519442Y201297D01*
X519408Y201032D01*
X519350Y200743D01*
X519269Y200467D01*
X519165Y200202D01*
Y200190D01*
X519154Y200167D01*
X519131Y200132D01*
X519108Y200086D01*
X519027Y199971D01*
X518912Y199821D01*
X518773Y199648D01*
X518600Y199464D01*
X518393Y199279D01*
X518151Y199118D01*
X518139D01*
X518116Y199106D01*
X518082Y199083D01*
X518024Y199060D01*
X517955Y199025D01*
X517874Y198991D01*
X517782Y198956D01*
X517666Y198922D01*
X517551Y198875D01*
X517413Y198841D01*
X517113Y198783D01*
X516779Y198737D01*
X516398Y198714D01*
X516387D01*
X516329D01*
X516260D01*
X516156Y198726D01*
X516029Y198737D01*
X515891Y198760D01*
X515729Y198783D01*
X515556Y198818D01*
X515372Y198853D01*
X515188Y198910D01*
X515003Y198979D01*
X514807Y199060D01*
X514622Y199152D01*
X514438Y199256D01*
X514265Y199383D01*
X514104Y199521D01*
X514092Y199533D01*
X514069Y199556D01*
X514023Y199602D01*
X513977Y199671D01*
X513919Y199752D01*
X513850Y199856D01*
X513769Y199982D01*
X513689Y200109D01*
X513619Y200271D01*
X513539Y200444D01*
X513470Y200628D01*
X513412Y200836D01*
X513366Y201055D01*
X513320Y201285D01*
X513297Y201539D01*
X513285Y201804D01*
Y201942D01*
X513297Y202046D01*
X513308Y202173D01*
X513331Y202323D01*
X513354Y202484D01*
X513389Y202657D01*
X513423Y202842D01*
X513481Y203026D01*
X513550Y203222D01*
X513619Y203407D01*
X513723Y203603D01*
X513827Y203776D01*
X513954Y203949D01*
X514092Y204110D01*
X514104Y204122D01*
X514127Y204145D01*
X514173Y204191D01*
X514242Y204237D01*
X514323Y204295D01*
X514427Y204364D01*
X514542Y204445D01*
X514680Y204525D01*
X514830Y204594D01*
X515003Y204675D01*
X515188Y204744D01*
X515383Y204802D01*
X515603Y204848D01*
X515833Y204894D01*
X516087Y204917D01*
X516352Y204929D01*
X516364D01*
X516398D01*
X516456D01*
X516525D01*
X516617Y204917D01*
D02*
G37*
G36*
X519384Y196108D02*
Y194091D01*
X513389Y191831D01*
Y193756D01*
X517713Y195117D01*
X513389Y196454D01*
Y198334D01*
X519384Y196108D01*
D02*
G37*
G36*
X384047Y210082D02*
X379723Y208722D01*
X384047Y207384D01*
Y205505D01*
X378051Y207730D01*
Y209748D01*
X384047Y212008D01*
Y210082D01*
D02*
G37*
G36*
Y202957D02*
X378051D01*
Y204813D01*
X384047D01*
Y202957D01*
D02*
G37*
G36*
Y199901D02*
X380715Y197630D01*
X384047D01*
Y195889D01*
X378051D01*
Y197630D01*
X381349Y199878D01*
X378051D01*
Y201619D01*
X384047D01*
Y199901D01*
D02*
G37*
G36*
X381314Y314063D02*
X381406D01*
X381499Y314052D01*
X381614Y314040D01*
X381729Y314029D01*
X382006Y313971D01*
X382283Y313902D01*
X382582Y313810D01*
X382859Y313671D01*
X382871D01*
X382894Y313648D01*
X382928Y313625D01*
X382975Y313591D01*
X383113Y313498D01*
X383274Y313371D01*
X383447Y313198D01*
X383632Y313002D01*
X383805Y312760D01*
X383955Y312484D01*
Y312472D01*
X383966Y312461D01*
X383978Y312415D01*
X384001Y312368D01*
X384024Y312311D01*
X384047Y312242D01*
X384081Y312149D01*
X384104Y312046D01*
X384127Y311942D01*
X384162Y311815D01*
X384208Y311538D01*
X384243Y311215D01*
X384254Y310846D01*
Y310604D01*
X384243Y310501D01*
X384231Y310293D01*
X384208Y310051D01*
X384174Y309797D01*
X384127Y309567D01*
X384104Y309463D01*
X384070Y309359D01*
Y309348D01*
X384058Y309336D01*
X384035Y309278D01*
X383989Y309186D01*
X383931Y309071D01*
X383851Y308944D01*
X383759Y308806D01*
X383643Y308667D01*
X383505Y308540D01*
X383493Y308529D01*
X383436Y308483D01*
X383355Y308425D01*
X383251Y308356D01*
X383113Y308275D01*
X382951Y308194D01*
X382755Y308114D01*
X382548Y308045D01*
X382237Y309832D01*
X382248D01*
X382294Y309855D01*
X382352Y309878D01*
X382433Y309924D01*
X382513Y309970D01*
X382594Y310039D01*
X382686Y310120D01*
X382755Y310212D01*
X382767Y310224D01*
X382790Y310258D01*
X382813Y310316D01*
X382848Y310397D01*
X382882Y310489D01*
X382917Y310616D01*
X382928Y310743D01*
X382940Y310893D01*
Y310950D01*
X382928Y310996D01*
X382917Y311100D01*
X382882Y311238D01*
X382836Y311400D01*
X382755Y311561D01*
X382652Y311711D01*
X382513Y311861D01*
X382490Y311873D01*
X382433Y311919D01*
X382329Y311976D01*
X382190Y312034D01*
X381995Y312103D01*
X381764Y312161D01*
X381487Y312207D01*
X381337Y312218D01*
X381164D01*
X381153D01*
X381118D01*
X381072D01*
X381003Y312207D01*
X380922D01*
X380841Y312195D01*
X380634Y312172D01*
X380403Y312126D01*
X380173Y312069D01*
X379965Y311976D01*
X379861Y311919D01*
X379781Y311861D01*
X379758Y311838D01*
X379712Y311792D01*
X379654Y311711D01*
X379573Y311596D01*
X379492Y311446D01*
X379435Y311273D01*
X379389Y311066D01*
X379366Y310835D01*
Y310720D01*
X379377Y310639D01*
X379389Y310558D01*
X379400Y310454D01*
X379446Y310247D01*
Y310235D01*
X379469Y310201D01*
X379492Y310132D01*
X379516Y310051D01*
X379562Y309959D01*
X379619Y309843D01*
X379677Y309728D01*
X379758Y309590D01*
X380334D01*
Y310835D01*
X381579D01*
Y307964D01*
X379008D01*
X378997Y307975D01*
X378985Y307998D01*
X378951Y308045D01*
X378916Y308102D01*
X378870Y308171D01*
X378824Y308264D01*
X378708Y308460D01*
X378582Y308690D01*
X378455Y308932D01*
X378340Y309186D01*
X378247Y309428D01*
Y309440D01*
X378236Y309451D01*
X378224Y309497D01*
X378213Y309543D01*
X378201Y309601D01*
X378190Y309670D01*
X378155Y309855D01*
X378109Y310074D01*
X378086Y310328D01*
X378063Y310616D01*
X378051Y310927D01*
Y311031D01*
X378063Y311100D01*
Y311192D01*
X378074Y311296D01*
X378086Y311411D01*
X378097Y311538D01*
X378143Y311815D01*
X378201Y312103D01*
X378293Y312403D01*
X378409Y312668D01*
Y312680D01*
X378432Y312703D01*
X378443Y312737D01*
X378478Y312783D01*
X378558Y312899D01*
X378685Y313049D01*
X378835Y313210D01*
X379020Y313383D01*
X379239Y313556D01*
X379492Y313706D01*
X379504D01*
X379527Y313717D01*
X379562Y313740D01*
X379619Y313763D01*
X379689Y313787D01*
X379769Y313821D01*
X379861Y313856D01*
X379977Y313890D01*
X380219Y313960D01*
X380496Y314017D01*
X380818Y314063D01*
X381153Y314075D01*
X381164D01*
X381199D01*
X381245D01*
X381314Y314063D01*
D02*
G37*
G36*
X384151Y305139D02*
X380818Y302868D01*
X384151D01*
Y301127D01*
X378155D01*
Y302868D01*
X381453Y305116D01*
X378155D01*
Y306857D01*
X384151D01*
Y305139D01*
D02*
G37*
G36*
Y296987D02*
X384139Y296918D01*
Y296837D01*
X384127Y296653D01*
X384093Y296445D01*
X384058Y296226D01*
X384001Y296007D01*
X383920Y295811D01*
Y295800D01*
X383908Y295788D01*
X383885Y295731D01*
X383828Y295638D01*
X383759Y295512D01*
X383666Y295385D01*
X383563Y295246D01*
X383436Y295108D01*
X383286Y294981D01*
X383263Y294970D01*
X383217Y294923D01*
X383124Y294866D01*
X383021Y294797D01*
X382871Y294716D01*
X382709Y294635D01*
X382525Y294566D01*
X382329Y294497D01*
X382317D01*
X382306Y294485D01*
X382237Y294474D01*
X382121Y294451D01*
X381971Y294416D01*
X381799Y294393D01*
X381602Y294370D01*
X381395Y294358D01*
X381164Y294347D01*
X381153D01*
X381118D01*
X381072D01*
X381003D01*
X380922Y294358D01*
X380830D01*
X380622Y294370D01*
X380380Y294405D01*
X380138Y294439D01*
X379896Y294497D01*
X379677Y294566D01*
X379654Y294578D01*
X379585Y294601D01*
X379492Y294658D01*
X379366Y294727D01*
X379227Y294808D01*
X379077Y294912D01*
X378927Y295039D01*
X378789Y295177D01*
X378778Y295200D01*
X378731Y295246D01*
X378674Y295327D01*
X378593Y295431D01*
X378512Y295558D01*
X378443Y295696D01*
X378374Y295857D01*
X378316Y296019D01*
Y296030D01*
X378305Y296042D01*
Y296076D01*
X378293Y296123D01*
X378270Y296238D01*
X378236Y296388D01*
X378201Y296561D01*
X378178Y296745D01*
X378167Y296930D01*
X378155Y297126D01*
Y299870D01*
X384151D01*
Y296987D01*
D02*
G37*
G36*
X383784Y248917D02*
X385159D01*
Y248333D01*
X383784D01*
Y246958D01*
X383208D01*
Y248333D01*
X381826D01*
Y248917D01*
X383208D01*
Y250291D01*
X383784D01*
Y248917D01*
D02*
G37*
G36*
X502284Y272964D02*
X503659D01*
Y272380D01*
X502284D01*
Y271006D01*
X501708D01*
Y272380D01*
X500326D01*
Y272964D01*
X501708D01*
Y274339D01*
X502284D01*
Y272964D01*
D02*
G37*
%LPC*%
G36*
X387928Y234859D02*
X387881D01*
X387766Y234836D01*
X387628Y234813D01*
X387466Y234721D01*
X387443D01*
X387420Y234698D01*
X387397Y234675D01*
X387374Y234651D01*
X387305Y234605D01*
X387213Y234490D01*
X387121Y234375D01*
X380848Y223514D01*
Y223491D01*
X380825Y223467D01*
X380779Y223375D01*
Y223329D01*
X380756Y223260D01*
Y223237D01*
Y223191D01*
X380733Y223145D01*
Y223052D01*
X380756Y222845D01*
X380802Y222729D01*
X380848Y222614D01*
X380871Y222568D01*
X380940Y222499D01*
X380963Y222476D01*
X381033Y222407D01*
X381056D01*
X381079Y222360D01*
X381217Y222291D01*
X381402Y222199D01*
X381517Y222176D01*
X381655Y222153D01*
X394200D01*
Y222176D01*
X394361D01*
X394430Y222199D01*
X394477Y222222D01*
X394454Y222199D01*
X394477D01*
X394523Y222222D01*
X394661Y222291D01*
X394823Y222407D01*
X394984Y222614D01*
X395007Y222660D01*
X395053Y222753D01*
X395076Y222914D01*
X395099Y223075D01*
Y223098D01*
Y223145D01*
Y223168D01*
Y223191D01*
X395076Y223283D01*
X395053Y223398D01*
X394984Y223537D01*
X394961D01*
X388689Y234398D01*
Y234421D01*
X388666Y234444D01*
X388619Y234513D01*
X388596Y234536D01*
X388527Y234605D01*
X388481Y234651D01*
X388366Y234721D01*
X388158Y234790D01*
X387928Y234836D01*
Y234859D01*
D02*
G37*
%LPD*%
G36*
X386106Y227388D02*
X390234Y229532D01*
X387720Y224321D01*
X388619Y224551D01*
X387121Y222799D01*
X386775Y224897D01*
X387466Y224344D01*
X388458Y228102D01*
X385276Y226534D01*
X387305Y233568D01*
X388804Y233614D01*
X386106Y227388D01*
D02*
G37*
%LPC*%
G36*
X520129Y243974D02*
X520052D01*
X519937Y243897D01*
X519860Y243820D01*
X519783Y243705D01*
X519744Y243551D01*
X519706Y243320D01*
Y243282D01*
Y243205D01*
X519744Y243013D01*
X519898Y242782D01*
X519975Y242705D01*
X520129Y242667D01*
X520206D01*
X520360Y242743D01*
X520436Y242820D01*
X520475Y242936D01*
X520552Y243090D01*
Y243320D01*
Y243358D01*
Y243435D01*
X520513Y243666D01*
X520360Y243858D01*
X520283Y243935D01*
X520129Y243974D01*
D02*
G37*
G36*
X536312D02*
X536120D01*
X536005Y243935D01*
X535851Y243781D01*
X535813Y243666D01*
X535774Y243512D01*
X536658D01*
Y243551D01*
Y243589D01*
X536581Y243743D01*
X536427Y243897D01*
X536312Y243974D01*
D02*
G37*
G36*
X528932D02*
X528893D01*
X528816Y243935D01*
X528701Y243897D01*
X528624Y243781D01*
X528586Y243705D01*
X528547Y243551D01*
X528509Y243320D01*
Y243243D01*
Y243128D01*
X528547Y242936D01*
X528624Y242820D01*
Y242782D01*
X528663Y242743D01*
X528778Y242705D01*
X528932Y242667D01*
X528970D01*
X529047Y242705D01*
X529162Y242743D01*
X529239Y242820D01*
X529278Y242859D01*
X529316Y242936D01*
X529355Y243090D01*
Y243320D01*
Y243397D01*
Y243512D01*
X529316Y243666D01*
X529239Y243781D01*
Y243820D01*
X529162Y243897D01*
X529085Y243935D01*
X528932Y243974D01*
D02*
G37*
G36*
X522205D02*
X522013D01*
X521897Y243935D01*
X521743Y243781D01*
X521705Y243666D01*
X521667Y243512D01*
X522551D01*
Y243551D01*
Y243589D01*
X522474Y243743D01*
X522320Y243897D01*
X522205Y243974D01*
D02*
G37*
G36*
X518130D02*
X518092D01*
X518015Y243935D01*
X517899Y243897D01*
X517823Y243781D01*
X517784Y243743D01*
X517746Y243666D01*
X517707Y243512D01*
X517669Y243320D01*
Y243282D01*
X517707Y243128D01*
X517746Y242974D01*
X517823Y242820D01*
Y242782D01*
X517861Y242743D01*
X517976Y242705D01*
X518130Y242667D01*
X518168D01*
X518284Y242705D01*
X518399Y242743D01*
X518476Y242820D01*
Y242859D01*
X518514Y242936D01*
X518553Y243090D01*
Y243320D01*
Y243397D01*
Y243512D01*
X518514Y243666D01*
X518476Y243781D01*
X518438Y243820D01*
X518399Y243897D01*
X518284Y243935D01*
X518130Y243974D01*
D02*
G37*
G36*
X525626Y240706D02*
X525549D01*
X525434Y240629D01*
X525357Y240552D01*
X525280Y240437D01*
X525242Y240283D01*
X525203Y240053D01*
Y240014D01*
Y239937D01*
X525242Y239745D01*
X525395Y239514D01*
X525472Y239438D01*
X525626Y239399D01*
X525703D01*
X525818Y239476D01*
X525895Y239553D01*
X525933Y239668D01*
X526010Y239822D01*
Y240053D01*
Y240091D01*
Y240168D01*
X525972Y240399D01*
X525856Y240591D01*
X525741Y240668D01*
X525626Y240706D01*
D02*
G37*
G36*
X530854Y239861D02*
X530315D01*
X530200Y239822D01*
X530047Y239784D01*
X530008Y239630D01*
Y239591D01*
X530047Y239514D01*
X530162Y239399D01*
X530354Y239361D01*
X530431D01*
X530623Y239399D01*
X530777Y239514D01*
X530815Y239630D01*
X530854Y239745D01*
Y239861D01*
D02*
G37*
G36*
X522512D02*
X521974D01*
X521859Y239822D01*
X521705Y239784D01*
X521667Y239630D01*
Y239591D01*
X521705Y239514D01*
X521820Y239399D01*
X522051Y239361D01*
X522128D01*
X522282Y239399D01*
X522435Y239514D01*
X522512Y239630D01*
Y239745D01*
Y239861D01*
D02*
G37*
G36*
X534083Y240706D02*
X533890D01*
X533775Y240668D01*
X533621Y240514D01*
X533583Y240399D01*
X533544Y240245D01*
X534429D01*
Y240283D01*
Y240322D01*
X534352Y240476D01*
X534198Y240629D01*
X534083Y240706D01*
D02*
G37*
G36*
X516410Y311572D02*
X516398D01*
X516364D01*
X516317D01*
X516260D01*
X516179Y311561D01*
X516087D01*
X515891Y311538D01*
X515672Y311492D01*
X515453Y311434D01*
X515257Y311353D01*
X515176Y311307D01*
X515107Y311249D01*
X515095Y311238D01*
X515049Y311192D01*
X514992Y311111D01*
X514922Y311007D01*
X514865Y310857D01*
X514807Y310684D01*
X514761Y310477D01*
X514749Y310223D01*
Y309762D01*
X518024D01*
Y310304D01*
X518012Y310408D01*
Y310535D01*
X517966Y310811D01*
X517943Y310938D01*
X517897Y311042D01*
X517885Y311053D01*
X517874Y311088D01*
X517839Y311123D01*
X517793Y311180D01*
X517736Y311238D01*
X517655Y311307D01*
X517563Y311365D01*
X517447Y311422D01*
X517436Y311434D01*
X517390Y311445D01*
X517309Y311469D01*
X517194Y311503D01*
X517055Y311526D01*
X516871Y311549D01*
X516663Y311561D01*
X516410Y311572D01*
D02*
G37*
G36*
X516513Y203073D02*
X516329D01*
X516317D01*
X516294D01*
X516248D01*
X516191D01*
X516121Y203061D01*
X516041Y203049D01*
X515856Y203026D01*
X515649Y202992D01*
X515441Y202923D01*
X515245Y202842D01*
X515084Y202727D01*
X515072Y202715D01*
X515026Y202669D01*
X514957Y202588D01*
X514888Y202484D01*
X514818Y202346D01*
X514749Y202196D01*
X514703Y202012D01*
X514692Y201804D01*
Y201781D01*
X514703Y201712D01*
X514715Y201608D01*
X514738Y201481D01*
X514795Y201331D01*
X514865Y201182D01*
X514957Y201043D01*
X515095Y200905D01*
X515118Y200893D01*
X515176Y200859D01*
X515268Y200801D01*
X515407Y200743D01*
X515591Y200674D01*
X515695Y200651D01*
X515810Y200628D01*
X515948Y200605D01*
X516087Y200582D01*
X516248Y200570D01*
X516410D01*
X516421D01*
X516444D01*
X516490D01*
X516560D01*
X516629Y200582D01*
X516721Y200593D01*
X516917Y200617D01*
X517125Y200651D01*
X517344Y200709D01*
X517540Y200789D01*
X517632Y200847D01*
X517713Y200905D01*
X517724Y200916D01*
X517770Y200962D01*
X517839Y201043D01*
X517909Y201147D01*
X517978Y201274D01*
X518047Y201435D01*
X518093Y201608D01*
X518105Y201816D01*
Y201839D01*
X518093Y201920D01*
X518082Y202023D01*
X518058Y202162D01*
X518012Y202300D01*
X517943Y202461D01*
X517851Y202611D01*
X517724Y202738D01*
X517701Y202750D01*
X517643Y202796D01*
X517551Y202842D01*
X517482Y202876D01*
X517401Y202911D01*
X517309Y202934D01*
X517205Y202969D01*
X517101Y202992D01*
X516975Y203026D01*
X516825Y203038D01*
X516675Y203061D01*
X516513Y203073D01*
D02*
G37*
G36*
X382790Y298013D02*
X379516D01*
Y297472D01*
X379527Y297368D01*
Y297241D01*
X379573Y296964D01*
X379596Y296837D01*
X379642Y296734D01*
X379654Y296722D01*
X379665Y296688D01*
X379700Y296653D01*
X379746Y296595D01*
X379804Y296538D01*
X379885Y296468D01*
X379977Y296411D01*
X380092Y296353D01*
X380103Y296342D01*
X380150Y296330D01*
X380230Y296307D01*
X380346Y296272D01*
X380484Y296249D01*
X380668Y296226D01*
X380876Y296215D01*
X381130Y296203D01*
X381141D01*
X381176D01*
X381222D01*
X381280D01*
X381360Y296215D01*
X381453D01*
X381649Y296238D01*
X381868Y296284D01*
X382087Y296342D01*
X382283Y296422D01*
X382363Y296468D01*
X382433Y296526D01*
X382444Y296538D01*
X382490Y296584D01*
X382548Y296665D01*
X382617Y296768D01*
X382675Y296918D01*
X382732Y297091D01*
X382779Y297299D01*
X382790Y297552D01*
Y298013D01*
D02*
G37*
%LPD*%
D10*
X391248Y256000D02*
G03*
X391248Y256000I-15748J0D01*
G01*
X382155Y270272D02*
G03*
X368845Y270272I-6655J-14273D01*
G01*
X502319Y300841D02*
G03*
X485681Y300841I-8319J-17841D01*
G01*
X513685Y283000D02*
G03*
X513685Y283000I-19685J0D01*
G01*
X504697Y197303D02*
Y210295D01*
X454303Y197303D02*
Y210295D01*
X504697Y234705D02*
Y247697D01*
X454303Y234705D02*
Y247697D01*
Y197303D02*
X504697D01*
X454303Y247697D02*
X504697D01*
X402315Y305441D02*
X441685D01*
X402315Y230244D02*
Y258984D01*
Y230244D02*
X441685D01*
Y235756D01*
Y305441D01*
X402315Y258984D02*
Y305441D01*
X368845Y270272D02*
X382155D01*
X485681Y300841D02*
X502319D01*
X423181Y207000D02*
X423969D01*
X420031D02*
X420425D01*
X423181Y205425D02*
Y208968D01*
X420425Y207000D02*
X423181Y208968D01*
X420425Y207000D02*
X423181Y205425D01*
X420425Y205031D02*
Y208968D01*
X407236Y208000D02*
Y213500D01*
X436500D01*
X407236Y208000D02*
X408000D01*
Y213500D01*
Y200500D02*
Y206000D01*
X407236D02*
X408000D01*
X436500Y211626D02*
Y213500D01*
X407236Y200500D02*
Y206000D01*
X436500Y200500D02*
Y202374D01*
X407236Y200500D02*
X436500D01*
D11*
X463756Y302193D02*
X464543D01*
Y288807D02*
Y302193D01*
X463756Y288807D02*
X464543D01*
X457457Y302193D02*
X458244D01*
X457457Y288807D02*
Y302193D01*
Y288807D02*
X458244D01*
X457457Y295500D02*
X464543D01*
X463756Y280193D02*
X464543D01*
Y266807D02*
Y280193D01*
X463756Y266807D02*
X464543D01*
X457457Y280193D02*
X458244D01*
X457457Y266807D02*
Y280193D01*
Y266807D02*
X458244D01*
X457457Y273500D02*
X464543D01*
D12*
X454200Y291600D02*
X449477D01*
Y293961D01*
X450264Y294749D01*
X451839D01*
X452626Y293961D01*
Y291600D01*
Y293174D02*
X454200Y294749D01*
Y299471D02*
Y296323D01*
X451051Y299471D01*
X450264D01*
X449477Y298684D01*
Y297110D01*
X450264Y296323D01*
X454200Y270400D02*
X449477D01*
Y272761D01*
X450264Y273549D01*
X451839D01*
X452626Y272761D01*
Y270400D01*
Y271974D02*
X454200Y273549D01*
Y275123D02*
Y276697D01*
Y275910D01*
X449477D01*
X450264Y275123D01*
X441700Y224823D02*
Y220100D01*
X444849D01*
X446423D02*
X447997D01*
X447210D01*
Y224823D01*
X446423Y224036D01*
X402561Y314074D02*
X404135D01*
X403348D01*
Y309351D01*
X402561D01*
X404135D01*
X409645Y313287D02*
X408858Y314074D01*
X407284D01*
X406496Y313287D01*
Y310138D01*
X407284Y309351D01*
X408858D01*
X409645Y310138D01*
X411219Y309351D02*
X412794D01*
X412007D01*
Y314074D01*
X411219Y313287D01*
X407800Y221723D02*
Y217000D01*
X410161D01*
X410949Y217787D01*
Y220936D01*
X410161Y221723D01*
X407800D01*
X412523Y217000D02*
X414097D01*
X413310D01*
Y221723D01*
X412523Y220936D01*
X493249Y310536D02*
X492461Y311323D01*
X490887D01*
X490100Y310536D01*
Y307387D01*
X490887Y306600D01*
X492461D01*
X493249Y307387D01*
X497971Y306600D02*
X494823D01*
X497971Y309749D01*
Y310536D01*
X497184Y311323D01*
X495610D01*
X494823Y310536D01*
X375549Y279536D02*
X374761Y280323D01*
X373187D01*
X372400Y279536D01*
Y276387D01*
X373187Y275600D01*
X374761D01*
X375549Y276387D01*
X377123Y275600D02*
X378697D01*
X377910D01*
Y280323D01*
X377123Y279536D01*
M02*
