M48
;Layer_Color=9474304
;FILE_FORMAT=2:5
INCH,TZ
;TYPE=PLATED
T1F00S00C0.01181
T2F00S00C0.03150
T3F00S00C0.11811
%
T01
X472441Y200787
X484252
X478346Y212598
X484252Y224409
X472441
X478346Y236220
Y283465
X490157
X501968
X513779
X525590
X537401
X507874Y295275
X513779Y307086
X501968
X490157
X478346
X484252Y295275
X472441
X466535Y307086
X454724
X442913
X431102
X419291
X407480
X395669
X383858
X389764Y295275
X401575
X395669Y283465
X383858
X372047
X360236
X366142Y271654
X377953
X389764
X401575
X407480Y259842
X419291
X431102
X425197Y248031
X448819
X454724Y259842
Y283465
X466535
X442913
X448819Y295275
X454724Y236220
X466535
X442913
X448819Y200787
X460630
X437008
X425197
X413386
X395669Y259842
X383858
X360236
X354331Y271654
T02
X494000Y273158
Y292843
X375500Y262890
Y249110
T03
X532382Y204134
Y303839
X365158
Y204134
M30
