G04*
G04 #@! TF.GenerationSoftware,Altium Limited,Altium Designer,20.0.13 (296)*
G04*
G04 Layer_Physical_Order=1*
G04 Layer_Color=255*
%FSLAX25Y25*%
%MOIN*%
G70*
G01*
G75*
%ADD13R,0.11417X0.21260*%
%ADD14R,0.05315X0.04528*%
%ADD15R,0.32992X0.41968*%
G04:AMPARAMS|DCode=16|XSize=47.24mil|YSize=121.06mil|CornerRadius=11.81mil|HoleSize=0mil|Usage=FLASHONLY|Rotation=0.000|XOffset=0mil|YOffset=0mil|HoleType=Round|Shape=RoundedRectangle|*
%AMROUNDEDRECTD16*
21,1,0.04724,0.09744,0,0,0.0*
21,1,0.02362,0.12106,0,0,0.0*
1,1,0.02362,0.01181,-0.04872*
1,1,0.02362,-0.01181,-0.04872*
1,1,0.02362,-0.01181,0.04872*
1,1,0.02362,0.01181,0.04872*
%
%ADD16ROUNDEDRECTD16*%
%ADD17R,0.09843X0.06693*%
%ADD25C,0.04724*%
G04:AMPARAMS|DCode=26|XSize=236.22mil|YSize=236.22mil|CornerRadius=59.06mil|HoleSize=0mil|Usage=FLASHONLY|Rotation=180.000|XOffset=0mil|YOffset=0mil|HoleType=Round|Shape=RoundedRectangle|*
%AMROUNDEDRECTD26*
21,1,0.23622,0.11811,0,0,180.0*
21,1,0.11811,0.23622,0,0,180.0*
1,1,0.11811,-0.05906,0.05906*
1,1,0.11811,0.05906,0.05906*
1,1,0.11811,0.05906,-0.05906*
1,1,0.11811,-0.05906,-0.05906*
%
%ADD26ROUNDEDRECTD26*%
%ADD27O,0.08268X0.05512*%
%ADD28C,0.02756*%
G36*
X544689Y278484D02*
X544189Y278108D01*
X522146Y278108D01*
X472684Y278108D01*
X472226Y277919D01*
X472037Y277461D01*
Y272990D01*
X458366D01*
X458190Y272917D01*
X457744D01*
Y272407D01*
X457718Y272345D01*
X457620Y249412D01*
X457621Y249411D01*
X457620Y249410D01*
X457715Y249181D01*
X457808Y248953D01*
X457809Y248953D01*
X457810Y248951D01*
X458038Y248857D01*
X458265Y248762D01*
X458266Y248762D01*
X458268Y248762D01*
X489158D01*
X489158Y191437D01*
X489074Y191311D01*
X402416D01*
X402321Y191453D01*
Y227632D01*
X402676Y227984D01*
X411608Y227896D01*
X411719Y227709D01*
X411852Y227450D01*
Y226648D01*
X408500D01*
X408042Y226458D01*
X407852Y226000D01*
Y203000D01*
X408042Y202542D01*
X408500Y202352D01*
X419500D01*
X419958Y202542D01*
X420148Y203000D01*
Y213852D01*
X439352D01*
Y210500D01*
X439542Y210042D01*
X440000Y209852D01*
X467000D01*
X467458Y210042D01*
X467648Y210500D01*
Y234000D01*
X467458Y234458D01*
X467000Y234648D01*
X452000D01*
X451542Y234458D01*
X451352Y234000D01*
Y228148D01*
X418648D01*
Y245000D01*
X418458Y245458D01*
X418000Y245648D01*
X412500D01*
X412461Y245631D01*
X412043Y245907D01*
X411967Y251977D01*
X411871Y252200D01*
X411778Y252425D01*
X411773Y252427D01*
X411771Y252432D01*
X411545Y252522D01*
X411321Y252616D01*
X352955Y252818D01*
X352811Y253281D01*
Y316189D01*
X544689D01*
Y278484D01*
D02*
G37*
G36*
X411319Y251969D02*
X411614Y228543D01*
X401673Y228642D01*
Y191453D01*
X352953D01*
X352953Y252170D01*
X411319Y251969D01*
D02*
G37*
G36*
X418000Y227500D02*
X452000D01*
Y234000D01*
X467000D01*
Y210500D01*
X440000D01*
Y214500D01*
X419500D01*
Y203000D01*
X408500D01*
Y226000D01*
X412500D01*
Y245000D01*
X418000D01*
Y227500D01*
D02*
G37*
G36*
X522146Y277461D02*
X544390Y277461D01*
X544390Y191437D01*
X489806Y191437D01*
X489806Y249410D01*
X458268D01*
X458366Y272342D01*
X472684D01*
Y277461D01*
X522146Y277461D01*
D02*
G37*
%LPC*%
G36*
X464445Y301996D02*
X461984D01*
Y299929D01*
X464445D01*
Y301996D01*
D02*
G37*
G36*
X460016D02*
X457555D01*
Y299929D01*
X460016D01*
Y301996D01*
D02*
G37*
G36*
X464445Y297961D02*
X461984D01*
Y295894D01*
X464445D01*
Y297961D01*
D02*
G37*
G36*
X460016D02*
X457555D01*
Y295894D01*
X460016D01*
Y297961D01*
D02*
G37*
G36*
X461000Y295041D02*
X460227Y294940D01*
X460174Y294917D01*
X457744D01*
Y289193D01*
X458014D01*
Y279931D01*
X450945D01*
X450172Y279829D01*
X449452Y279531D01*
X448833Y279056D01*
X444388Y274611D01*
X443914Y273993D01*
X443616Y273273D01*
X443514Y272500D01*
Y260237D01*
X439263Y255986D01*
X437000D01*
X436227Y255884D01*
X435507Y255586D01*
X434889Y255112D01*
X426581Y246804D01*
X426107Y246186D01*
X425808Y245466D01*
X425707Y244693D01*
Y243037D01*
X425697Y242990D01*
Y233246D01*
X425836Y232552D01*
X426229Y231963D01*
X426818Y231570D01*
X427512Y231432D01*
X429874D01*
X430568Y231570D01*
X431157Y231963D01*
X431550Y232552D01*
X431688Y233246D01*
Y242990D01*
X431679Y243037D01*
Y243456D01*
X438237Y250014D01*
X440500D01*
X441273Y250116D01*
X441993Y250414D01*
X442612Y250888D01*
X448611Y256889D01*
X449086Y257507D01*
X449384Y258227D01*
X449486Y259000D01*
Y271263D01*
X452182Y273959D01*
X461000D01*
X461773Y274060D01*
X461827Y274083D01*
X464256D01*
Y279807D01*
X463986D01*
Y289193D01*
X464256D01*
Y294917D01*
X461827D01*
X461773Y294940D01*
X461000Y295041D01*
D02*
G37*
%LPD*%
D13*
X498595Y222500D02*
D03*
X460405D02*
D03*
D14*
X461000Y298945D02*
D03*
Y292055D02*
D03*
Y276945D02*
D03*
Y270055D02*
D03*
D15*
X422000Y283000D02*
D03*
D16*
X435386Y238118D02*
D03*
X428693D02*
D03*
X422000D02*
D03*
X415307D02*
D03*
X408614D02*
D03*
D17*
X414126Y207000D02*
D03*
X429874D02*
D03*
D25*
X428693Y238118D02*
Y244693D01*
X437000Y253000D01*
X440500D01*
X446500Y259000D01*
Y272500D01*
X450945Y276945D02*
X461000D01*
X446500Y272500D02*
X450945Y276945D01*
X461000D02*
Y292055D01*
D26*
X532382Y303839D02*
D03*
X365158D02*
D03*
X532382Y204134D02*
D03*
X365158D02*
D03*
D27*
X375500Y249110D02*
D03*
Y262890D02*
D03*
X494000Y292843D02*
D03*
Y273158D02*
D03*
D28*
X537401Y283465D02*
D03*
X525590D02*
D03*
X513779Y307086D02*
D03*
X507874Y295275D02*
D03*
X513779Y283465D02*
D03*
X501968Y307086D02*
D03*
Y283465D02*
D03*
X490157Y307086D02*
D03*
X484252Y295275D02*
D03*
X490157Y283465D02*
D03*
X484252Y224409D02*
D03*
Y200787D02*
D03*
X478346Y307086D02*
D03*
X472441Y295275D02*
D03*
X478346Y283465D02*
D03*
Y236220D02*
D03*
X472441Y224409D02*
D03*
X478346Y212598D02*
D03*
X472441Y200787D02*
D03*
X466535Y307086D02*
D03*
Y283465D02*
D03*
Y236220D02*
D03*
X460630Y200787D02*
D03*
X454724Y307086D02*
D03*
X448819Y295275D02*
D03*
X454724Y283465D02*
D03*
Y259842D02*
D03*
X448819Y248031D02*
D03*
X454724Y236220D02*
D03*
X448819Y200787D02*
D03*
X442913Y307086D02*
D03*
Y283465D02*
D03*
Y236220D02*
D03*
X437008Y200787D02*
D03*
X431102Y307086D02*
D03*
Y259842D02*
D03*
X425197Y248031D02*
D03*
Y200787D02*
D03*
X419291Y307086D02*
D03*
Y259842D02*
D03*
X413386Y200787D02*
D03*
X407480Y307086D02*
D03*
X401575Y295275D02*
D03*
Y271654D02*
D03*
X407480Y259842D02*
D03*
X395669Y307086D02*
D03*
X389764Y295275D02*
D03*
X395669Y283465D02*
D03*
X389764Y271654D02*
D03*
X395669Y259842D02*
D03*
X383858Y307086D02*
D03*
Y283465D02*
D03*
X377953Y271654D02*
D03*
X383858Y259842D02*
D03*
X372047Y283465D02*
D03*
X366142Y271654D02*
D03*
X360236Y283465D02*
D03*
X354331Y271654D02*
D03*
X360236Y259842D02*
D03*
M02*
